<svg xmlns="http://www.w3.org/2000/svg" viewBox="0 0 258 574.4"><style>.st0{opacity:.1;fill-rule:evenodd;clip-rule:evenodd;fill:#010202}.st1{fill:#303947}.st1,.st2{fill-rule:evenodd;clip-rule:evenodd}.st2{fill:none;stroke:#556270;stroke-width:2;stroke-miterlimit:10}.st3{fill:#fcdecd}.st3,.st4{fill-rule:evenodd;clip-rule:evenodd}.st4{opacity:.15;fill:#010202}.st5{opacity:.2;fill:#010202}.st5,.st6{fill-rule:evenodd;clip-rule:evenodd}.st6{fill:#556270}.st7{opacity:.1;fill:#010202}.st8{fill:#d41c2a}.st8,.st9{fill-rule:evenodd;clip-rule:evenodd}.st9{fill:#333}.st10{fill:#d8d8c1}.st10,.st11{fill-rule:evenodd;clip-rule:evenodd}.st11{fill:#fff}.st12{opacity:.15;stroke:#010202}.st12,.st13{fill-rule:evenodd;clip-rule:evenodd;fill:none;stroke-width:3;stroke-miterlimit:10}.st13{stroke:#fff}.st14{opacity:.9}.st15{fill:#56342a}.st15,.st16{fill-rule:evenodd;clip-rule:evenodd}.st16{opacity:.35;fill:#fff}.st17{opacity:.7;fill:#fff}.st17,.st18{fill-rule:evenodd;clip-rule:evenodd}.st18{fill:#ffcc04}</style><path class="st0" d="M129 527.7c71.2 0 129 10.5 129 23.3 0 12.9-57.8 23.3-129 23.3S0 563.9 0 551s57.8-23.3 129-23.3z" id="shadow"/><path class="st1" d="M61.5 526.3c-20 2.3-38.2 16.6-26.8 21.7 13.4 6 38.5-7.5 39.9-16" id="pied"/><path class="st1" d="M194.9 534.1s.6 33.2 27.4 28c13.4-2.6-6-22.9-15.4-32" id="pied_1_"/><path class="st2" d="M205.3 544.7s4.6-2 9.7-1.1" id="lacet"/><path class="st2" d="M202.3 540.7s4.6-2 9.7-1.1" id="lacet_-_copie"/><path class="st2" d="M46.1 533.1s5.4.3 9.6 3.8" id="lacet_1_"/><path class="st2" d="M51.1 531.1s5.4.3 9.6 3.8" id="lacet_-_copie_2"/><path class="st3" d="M212.9 215.1s16.6 67.5-21.1 112.1c-22.8 27 12.5 12 12.5 12s41.4-55.4 26.2-129.2" id="bras"/><path class="st3" d="M67.6 202.1s-18 46.3 1.7 114.4c19.7 68 13.7-3.4 13.7-3.4s-22.3-50.5 2.3-103.5" id="bras_1_"/><path class="st4" d="M66.5 205.2s-1.5 5.3-1.5 5.6c1.4 3.3 5.1 9.9 13 12.4.7.2 1.3.3 1.8.4l1.3-3.9 4.3-11.5-18.3-7.4-.5 5.1" id="shadow_bras_2_"/><path class="st1" d="M193.7 292.3s12.7 147 13.1 237.9c.1 14.9-5.1 6.9-11.4 6.3-2.8-.3-2.9-187.8-58.2-183.6-75.4 5.7-62.7 179.6-62.7 179.6l-14.8-2.3s.6-133.2 25.1-224.7" id="jean"/><path class="st1" d="M196 328.5s.1 3.1 2.9 6.3c2.4 2.7 5.7 2.3 5.7 2.3l1.1-1.1s5.5 3.3.6 13.2c-6.3 12.6-20 25.2-20 25.2" id="poche_droite"/><path class="st1" d="M83.3 311.8s-2.2 4.1-9.7 5.1c-3.5.5-5.5-3.2-5.5-3.2s-1.1 2-1.5 3.1c-.9 2.5.2 9.8 3 15.5 4.8 9.8 14.8 13.7 14.8 13.7" id="poche_gauche"/><path class="st5" d="M67.9 313.6s.3 9.1 5.5 10.5c3.8 1.1 11.7-5.1 13.8-3.6 18.3 13.4 45.2 19.9 107.7 8.1.5-.1 1.4-.2 1.4-.2L82.5 311s.1 1.3-.6 2.3c-.4.6-4.2 3.6-8.3 3.7-4.3 0-5.7-3.4-5.7-3.4z" id="shadow_tshirt"/><path class="st5" d="M74.5 531.4S56.1 318 146 353c1 1-43.5-12.2-62.5 62.2-12.9 48.1-9.6 114-9.6 114" id="shadow_jean"/><path class="st6" d="M180.6 132.2s21.4 5.8 26.8 10.9c14.1 13.1 26.2 69.2 26.2 69.2s-1.3 5.9-12 8c-9.6 1.9-13.1.6-13.1.6s1.8 15.7 1.7 41.2c-.1 23.3-5.7 45.7-5.7 45.7s-1.1 3.7-3.4 9.7c-2.2 5.7-4.6 10.9-4.6 10.9s-35.9 3.3-64.5 0c-25.5-2.9-53.9-15.6-57-20-.8-1.2 10.8-21.3 16-54.9 3.8-24.8 1.7-37.2 1.7-37.2s-10.2.2-18.3-2.9c-8.7-3.3-12-8.6-12-8.6s4.2-17.7 12-34.9c6.6-14.6 13.1-26.9 17.1-29.2 4.4-2.9 18.3-3.7 29.7-8" id="tshirt"/><path class="st5" d="M208.7 220.6s-2.5-.4-5.1-.9c-2.6-.4-5.2-1.4-5.2-1.4s9.5 41.1 6.3 73.8c-3.2 32.6-.6 16-.6 16s3.4-9.9 5-27.2c1.5-15.1 1.4-35.8-.4-60.3z" id="shadow_bras"/><path class="st5" d="M92.7 216.4s-.2-7.2-1.5-18.2c-1.3-10.5-3.2-17-3.2-17s1.2 9.9 2.1 21.6c.4 6 1.1 8.6-.6 11.4-1.1 1.9-2.9 1.7-2.9 1.7" id="shadow_bras_1_"/><path class="st7" d="M200.1 318.3H93.9s-2.5-.8-10.3-4.5c-4.8-2.3-7-4-8-4.9-.6-.6-.5-1.1-.5-1.1s3.2-7.8 4.4-11 3.5-9.7 3.5-9.7h125.4s-2.1 13.1-3.4 18.5c-1.2 5.4-4.9 12.7-4.9 12.7z" id="rayure_-_copie_2"/><path class="st8" d="M197.6 324.3s1.3 5.6 5.7 8.6c3.8 2.5 5.1 1.7 5.1 1.7l2.3-4s-6.7-.6-11.4-10.3" id="poignet"/><path class="st9" d="M199.2 319.2s2.9 5.3 8.9 7.7c4 1.6 6.3-.2 6.3-.2l1.6-5.9c2.5-.2-8.6-2.5-14.2-8.7" id="montre"/><path class="st10" d="M214 318.7s-4.1.8-4.8 7c-.6 5.5 3.6 5.9 5.9 3.2 2.8-3.2 4.6-10.8-1.1-10.2z" id="montre_border"/><path class="st10" d="M215 319.2s-4.1.8-4.8 7c-.6 5.5 3.6 5.9 5.9 3.2 2.8-3.2 4.6-10.9-1.1-10.2z" id="montre_border_-_copie_3"/><path class="st10" d="M214.9 318.9s-4.1.8-4.8 7c-.6 5.5 3.6 5.9 5.9 3.2 2.8-3.2 4.6-10.8-1.1-10.2z" id="montre_border_-_copie"/><path class="st10" d="M215.9 319.2s-4.1.8-4.8 7c-.6 5.5 3.6 5.9 5.9 3.2 2.8-3.2 4.6-10.9-1.1-10.2z" id="montre_border_-_copie_2"/><path class="st11" d="M216 319.9s-4.1.8-4.8 6.6c-.6 5.2 3.6 5.6 5.9 3 2.8-3 4.6-10.3-1.1-9.6z" id="montre_cadran"/><path class="st3" d="M136.9 108.6s5.9 14.9 3.4 32.6c-1.5 11 13.1 1.1 17.1-5.1 4-6.3 2.9-7.4 2.9-7.4s-1-10.7 0-18.3c1-7.6-17.1-4-17.1-4" id="cou"/><path class="st3" d="M140.9 125.6s-14.3 5.9-18.8 6.9c-4.7 1-9.7 19.7 18.3 25.7 40 8.6 42.8-24.6 40.5-25.7-2.2-1.1-15.6-3.4-21.1-6.3-2.5-1.3-.6-9.7-.6-9.7" id="bas"/><path class="st4" d="M140.6 125.5s.4 1.8.6 4c.1 2.1.6 5.7.6 5.7s-1.1-3.3-2.3-5.1c-1.3-2-2.3-2.9-2.3-2.9" id="ombre_cou"/><path class="st7" d="M228.2 190.9H66.7s2.9-9.2 5.4-15c2.5-5.9 7.5-16.3 7.5-16.3h137.9s5.7 15.1 6.3 16.5 4.4 14.8 4.4 14.8z" id="rayure_-_copie"/><path class="st12" d="M132.2 130.4s-12.9 14.4-7.6 25.7c6.6 14 30.3 15.5 40.2 5.4 9.9-10.2 9.7-24.9 8.7-29.9" id="collier_ombre"/><path class="st13" d="M132.9 129s-12.7 14.1-7.4 25.3c6.5 13.7 29.7 15.3 39.4 5.3s9.5-24.5 8.6-29.4" id="collier"/><path class="st4" d="M138.2 110.3c.1-1.1-.2.5 0 2.9.2-.2 1.3 4.7 1.3 5 3.9 2.7 11.4 6.4 20.4 4.3 0 0-.1-1.7-.1-3.9 0-3.7.1-8.8.1-8.8l-20.1-5.5-7.4 5.1 3.7-2.2" id="ombre_sous_visage"/><path class="st3" d="M143.8 13.5s-3.2 3.1-5.5 6.4c-7.1 10.3-21 33.1-25.5 44.9-5.9 15.5 2.7 32.4 4.7 37.4 2 5.1 17.5 12.6 39.6 12.2 9.1-.2 23.9-22.5 27.1-26.8.9-1.2.7 2.4 5 2.4 2.1 0 5-.8 10.8-6.9 3.5-3.7.6-13.9-3.1-16-2.9-1.6-9.3 1.4-11 4.9-3.4 7.3 31.4-54.3-24.8-60.9-4.6-.5-8.5-1.4-14.5 1" id="visage"/><path class="st4" d="M188.8 71.3s-3.1-3.1-9.3-6.2c-4.8-2.4-8.9-3.4-8.9-3.4s-2 2.1-4.6 4c-2.7 2-6.8 4-6.8 4s-5.3-.3-11.4-2.9c-5.5-2.3-11.4-6.3-11.4-6.3l20 5.1 5.7-4 5.1-5.1 6.8.5 8.6 4.6L190 65l1.7 2.3" id="ombre_lunette"/><path class="st4" d="M117.3 56.2s4.1 1.3 6.8 1.7c1.6.2 3.2-.6 4-1.7.3-.5 1.9-2.4 2.9-4 1.2-2.1 2.8-4 2.9-4 5.5-3.8 1.3-2.1 2.3-2.3 1-.2-4-.6-4-.6l-4 6.3-4 2.9-5.1-1.7" id="ombre_lunette_2"/><path class="st14 st15" d="M183.5 84c-1.1-6.9 2.5-11 2.5-11s-1.7-3.2-3.4.7c-1.7 3.9-2.2 5.4-3.2 9.2-1 3.6-11 16.3-17 17.9-9.8 2.7-22.8-2.3-25.1-3.4-2.3-1.1.1-17.8-3.6-18.8-11.2-3-15.1-5.8-18.2-7.6-1.6-.9-4.3 3.9-4.7 4.8 0 .3-2 6-.3 10.7 1.9 5.2 3.7 12.2 4.7 15.3 1.1 3.1 6.8 7.6 13.9 10.6 7.1 2.9 28.4 4.7 34 .9 2.4-1.7 9.9-10.3 15.9-16.6 4.2-4.4 7.4-7.4 7.4-7.4s-2.5-2.8-2.9-5.3zm-58.1 9.5s-3.4-.5-6.2-1.9c-2.4-1.2-3.2-2.3-4.3-3.2-1.1-.9-1-5.4-1-6.1l1-.9s1.2.4 3.5 1.4c2.5 1.1 4.9 2.2 4.9 2.2s2.1 1.8 2.5 4.6c.4 2.4-.4 3.9-.4 3.9zm-14.8-17.6s0-.1.1-.1l-.1.1z" id="barbe_1_"/><path class="st15" d="M183.2 73s.5-1.6 3.3-5.6c3-4.1 6.2-11.6 6.3-23.3.2-27.6-21.8-33.1-36.6-33-8.4.1-13.4 3.4-13.4 3.4s4.3-9.9 15.1-13.2c12.7-3.9 29.7.8 36 17.3 2.1 5.4 2.9 10.5 6.2 16 3.3 5.4 6.6 9.8 8.3 12.1 1.7 2.3 3.1 9.3.5 17-2.7 7.7-3.4 13.4-9 19.2" id="cheveux"/><path class="st16" d="M141.8 37.2l5.1-1.7 10.3 5.1 9.7 6.3-.6 5.7-4 7.4-4.6 4-4 .6-10.3-2.3-6.3-3.4-.6-6.9 1.7-9.1 1.1-5.7" id="verre_droit"/><path class="st17" d="M123 32.8l-3.4 5.1-3.4 7.4-1.1 4 1.1 2.3 4 2.3h3.4l2.9-.6 4-5.7 4.6-6.9.6-5.1-1.7-3.4-4-.6-5.1.6" id="verre_gauche"/><path class="st6" d="M171.1 47.1c.5 1.1.6.9 0 0zm-.2-.6c.1.2.1.3.2.5 0 .1.1.1.1.2-.1-.2-.2-.5-.3-.7zm-.5 6.1s1.2-3.1.6-5.7c-1.7-2.4-7.9-9.1-25.1-13.7-1.5-.4-3 1.7-6.2.9-2.4-.6-3.5-3.3-4.4-3.6-4.7-1.2-5.9-.8-10.1-.8-3.5 0-10.1 16-11 19.6-.9 3.5 7.7 6.7 10.9 6.5 2.6-.2 6.3-6.5 8.6-8.7.3-.3 1-.9 1.3-.8.4.2.6 1.1.8 1 0 0-2.8 10.1-.5 12.4 2.3 2.3 18.2 8.3 22.3 7.9 4.1-.4 10.6-9 10.6-9l13.9 5.1 1.2-5.3-12.9-5.8zm-39.8-8c-3.4 5.4-6 7.7-6 7.7s-2.7.2-4.8-1c-1.6-.9-2.6-.8-3-2.5-.5-1 1.1-4.9 2.8-8.6 1.8-3.8 4.6-7.2 4.6-7.2 4.8-1.1 9.7.9 10.2 2s-.1 3.7-3.8 9.6zm32 10.9c-2.2 4.3-3.7 6.5-6 7.2-2.3.7-5.9-.6-10.4-2.4-4.5-1.8-7.2-2.1-7.7-4.3-.4-2.2.2-5.9 1.8-11 1.4-4.2 1.7-6 3.7-7.1 2-1.1 5.4.1 10.4 2.4 5.2 2.4 9.5 5.2 10 7 .6 1.9.1 4.4-1.8 8.2z" id="lunettes"/><path class="st18" d="M183.2 58.1l-2.1 5.3 9.9 4.7s1-.2 2.2-.3c.9-.1 1.8-.1 2.4.1 2 .6 4.1 2.7 4.1 2.7s2-4.2-16.5-12.5z" id="branches"/><path class="st3" d="M184.8 75s3.2-8.4 9.7-8.1c6.5.3 9 12.5 5.1 16.4-3 3.1-13.9-4.4-13.9-4.4" id="oreille"/><path class="st4" d="M189.2 76.6s3-7.4 6.3-3.4c3.2 4 2.7 6.1.6 7.4-2.1 1.3-4.6 2.1-2.9-1.1 1.7-3.2.6-4.4-1.1-3.4" id="ombre_oreille"/><path class="st7" d="M210.1 254.9H90.9s1.2-7.7 1.8-15.3.7-16 .7-16h115.5s1 10.7 1 17.9c.3 7.9.2 13.4.2 13.4z" id="rayure"/></svg>
