<svg version="1" xmlns="http://www.w3.org/2000/svg" width="346.667" height="346.667" viewBox="0 0 260.000000 260.000000"><path d="M115 .7c-29.1 4.4-51.9 14.9-72 33C14.4 59.4-.4 94.1.5 133c.2 8 .6 15.8 1 17.5 2.1 9.9 2.8 12.8 5.1 20 5.4 17 16.1 35.1 27.8 47 7.1 7.2 7.1 7.2 12.9 7.4 18.7.6 22.1-3.3 26.7-30.9 1.2-6.9 2.3-13.6 2.5-15 .5-2.4 3.4-21.4 4-25.5.2-1.1.8-4.7 1.4-8 .5-3.3 1.3-7.8 1.6-10 .3-2.2 1.3-8.8 2.3-14.8 1-5.9 1.6-11.1 1.3-11.6-.4-.4-3.9-1.6-7.9-2.6-7.1-1.7-7.3-1.8-6.7-4.4.3-1.4.8-4 1-5.6 1.4-8.4 1.2-8 6.3-8.1 2.6-.1 12.7-.4 22.4-.8 14.4-.6 17.7-.5 17.4.6-.4 1.1-2.4 13.1-4.2 25.3-.2 1.6-.6 4.1-.9 5.5-.5 2.9-.7 4-3.5 21.5-1.1 7.1-2.2 14.1-2.4 15.5-.3 1.4-2.3 14-4.6 28-2.2 14-5 28.2-6.2 31.5-2.5 7.3-7.7 15.3-12.6 19.6-3.9 3.4-12.6 7.9-15.5 7.9-3.1 0-.9 1.9 5.8 5 8.2 3.8 19 7.3 29.6 9.6 11.8 2.5 38.1 2.5 49.9 0 35.1-7.6 64.1-27 83.2-55.8 9.2-13.9 17.3-33.5 19.4-47.3.3-2.2 1-6 1.4-8.5.9-4.8.6-30.6-.4-35.5-.4-1.7-1.1-5.3-1.6-8-2.9-14.2-10.4-31.7-19.5-45.6-6.1-9.2-24.7-27.9-34-34.1-13.7-9.1-31.8-16.9-46-19.8-2.7-.5-6.3-1.2-8-1.6C146.1.7 118.8.1 115 .7zm2.4 36.7c5.2 2.2 7.6 6.4 7.6 13.3 0 15.7-13.1 26.1-25.6 20.3-5.1-2.3-6.7-5.2-7-12.5-.7-15.4 12.3-26.4 25-21.1zm74.6 3.5c0 .5-.5 3.3-1 6.2-.6 3-2.2 12.5-3.5 21.2-1.4 8.6-2.7 17-2.9 18.5-2.5 15.6-3.6 22.2-4 24.7-1.6 10.7-5.8 36.8-6.6 41-.5 2.7-1.2 7-1.5 9.5-.3 2.5-.8 6.4-1.2 8.7l-.5 4.1 5.8 1.2c9 1.8 9.6 2 8.9 3.8-.3.8-.8 4.1-1.1 7.1-.4 3.1-.9 5.9-1.3 6.3-1.1 1.2-43.8 3.2-44.4 2.1-.2-.5.7-7.1 1.9-14.8 3-17.9 3.3-19.7 4-24.3.3-2 2.1-13.4 4-25.2 1.9-11.8 3.7-22.6 3.9-24 .2-1.4 1.1-6.8 2-12 .8-5.2 1.7-10.9 2-12.5 1.1-8 1.8-12.4 2.5-16.3.4-2.3.5-4.4.1-4.6-.3-.2-3.9-1.1-7.9-2.1-5.8-1.4-7.2-2.1-6.8-3.4.3-.9.7-3.4 1-5.6 1.4-9.9.1-9.1 13.9-9.4 6.7-.1 12.2-.3 12.3-.4.7-.7 20.4-.4 20.4.2z"/></svg>
